<svg width="129" height="37" fill="none" xmlns="http://www.w3.org/2000/svg"><path d="M37 18.5C37 28.717 28.717 37 18.5 37S0 28.717 0 18.5 8.283 0 18.5 0 37 8.283 37 18.5zm-29.987 0c0 6.344 5.143 11.487 11.487 11.487S29.987 24.844 29.987 18.5 24.844 7.013 18.5 7.013 7.013 12.156 7.013 18.5z" fill="#FC5050"/><path d="M59.016 21.422h6.078V23h-8.469v-1.281l5.883-8.5h-5.844v-1.594h8.242v1.25l-5.89 8.547zM71.664 23c-.083-.162-.156-.424-.219-.79a2.955 2.955 0 01-2.218.946c-.85 0-1.542-.242-2.079-.726-.536-.485-.804-1.084-.804-1.797 0-.901.333-1.591 1-2.07.672-.485 1.63-.727 2.875-.727h1.164v-.555c0-.437-.123-.786-.367-1.047-.245-.265-.618-.398-1.118-.398-.432 0-.786.11-1.062.328a.993.993 0 00-.414.82h-1.899c0-.463.154-.896.461-1.297.308-.406.724-.723 1.25-.953a4.432 4.432 0 011.774-.343c.99 0 1.779.25 2.367.75.588.494.89 1.192.906 2.093v3.813c0 .76.107 1.367.32 1.82V23h-1.937zm-2.086-1.367c.375 0 .727-.091 1.055-.274.333-.182.583-.427.75-.734v-1.594h-1.024c-.703 0-1.231.123-1.586.367-.354.245-.53.592-.53 1.04 0 .364.119.656.359.875.244.213.57.32.976.32zM77.29 23h-1.898v-8.453h1.898V23zm-2.016-10.648c0-.292.092-.534.274-.727.187-.193.453-.29.797-.29.344 0 .61.097.797.29a1 1 0 01.28.727.99.99 0 01-.28.718c-.188.188-.454.282-.797.282-.344 0-.61-.094-.797-.282a1.005 1.005 0 01-.274-.718zm5.875 2.195l.055.883c.594-.693 1.406-1.04 2.438-1.04 1.13 0 1.903.433 2.32 1.297.615-.864 1.48-1.296 2.594-1.296.932 0 1.625.257 2.078.773.458.516.693 1.276.703 2.281V23h-1.898v-5.5c0-.537-.118-.93-.352-1.18-.234-.25-.623-.375-1.164-.375-.432 0-.787.117-1.063.352a1.82 1.82 0 00-.57.906L86.297 23h-1.899v-5.563c-.026-.994-.533-1.492-1.523-1.492-.76 0-1.3.31-1.617.93V23h-1.899v-8.453h1.79zm14.297 6.875h5.164V23h-7.14V11.625h1.976v9.797zm6.141-2.727c0-.828.164-1.573.492-2.234.328-.667.789-1.177 1.383-1.531.594-.36 1.276-.54 2.047-.54 1.14 0 2.065.368 2.773 1.102.714.735 1.099 1.709 1.157 2.922l.007.445c0 .834-.161 1.578-.484 2.235a3.521 3.521 0 01-1.375 1.523c-.594.36-1.281.54-2.063.54-1.192 0-2.148-.397-2.867-1.188-.713-.797-1.07-1.857-1.07-3.18v-.094zm1.898.164c0 .87.18 1.552.539 2.047.36.49.86.735 1.5.735.641 0 1.138-.25 1.493-.75.359-.5.539-1.232.539-2.196 0-.854-.185-1.53-.555-2.03-.365-.5-.862-.75-1.492-.75-.62 0-1.112.247-1.477.741-.364.49-.547 1.224-.547 2.203zm7.235-.148c0-1.313.307-2.36.922-3.14.619-.787 1.44-1.18 2.461-1.18.963 0 1.721.336 2.273 1.007l.086-.851h1.711v8.195c0 1.11-.346 1.985-1.039 2.625-.688.64-1.617.961-2.789.961a4.5 4.5 0 01-1.821-.39c-.588-.256-1.036-.592-1.343-1.008l.898-1.14c.583.692 1.302 1.038 2.156 1.038.631 0 1.128-.172 1.493-.515.364-.339.546-.839.546-1.5v-.57c-.546.609-1.276.913-2.187.913-.99 0-1.8-.393-2.43-1.18-.625-.786-.937-1.874-.937-3.265zm1.89.164c0 .849.172 1.518.516 2.008.349.484.831.726 1.445.726.766 0 1.334-.328 1.703-.984v-3.719c-.359-.64-.921-.96-1.687-.96-.625 0-1.112.247-1.461.742-.344.494-.516 1.224-.516 2.187zm7.164-.18c0-.828.165-1.573.493-2.234.328-.667.789-1.177 1.382-1.531.594-.36 1.276-.54 2.047-.54 1.141 0 2.065.368 2.774 1.102.713.735 1.099 1.709 1.156 2.922l.008.445c0 .834-.162 1.578-.485 2.235a3.515 3.515 0 01-1.375 1.523c-.593.36-1.281.54-2.062.54-1.193 0-2.149-.397-2.867-1.188-.714-.797-1.071-1.857-1.071-3.18v-.094zm1.899.164c0 .87.18 1.552.539 2.047.359.49.859.735 1.5.735s1.138-.25 1.492-.75c.359-.5.539-1.232.539-2.196 0-.854-.185-1.53-.554-2.03-.365-.5-.862-.75-1.493-.75-.619 0-1.112.247-1.476.741-.365.49-.547 1.224-.547 2.203z" fill="#2F343A"/></svg>