<svg width="64" height="64" fill="none" xmlns="http://www.w3.org/2000/svg"><path stroke="#FF461B" stroke-width="3" stroke-linecap="round" d="M61.257 2.695L2.121 61.831"/><path d="M64 49.829C64 57.655 57.655 64 49.829 64c-7.827 0-14.172-6.345-14.172-14.171 0-7.827 6.345-14.172 14.172-14.172C57.655 35.657 64 42.002 64 49.83zm-25.509 0c0 6.26 5.076 11.337 11.338 11.337 6.26 0 11.337-5.076 11.337-11.337 0-6.262-5.076-11.337-11.337-11.337-6.262 0-11.338 5.075-11.338 11.337zM28.343 14.171c0 7.827-6.345 14.172-14.172 14.172C6.345 28.343 0 21.998 0 14.17 0 6.345 6.345 0 14.171 0c7.827 0 14.172 6.345 14.172 14.171zm-25.509 0c0 6.262 5.076 11.338 11.337 11.338 6.262 0 11.338-5.076 11.338-11.338 0-6.26-5.076-11.337-11.338-11.337-6.26 0-11.337 5.076-11.337 11.337z" fill="#FF461B"/></svg>