<svg width="33" height="33" fill="none" xmlns="http://www.w3.org/2000/svg"><g clip-path="url(#clip0)" fill="#66CE71"><path d="M28.996 6.682L16.593.072a.616.616 0 00-.587.004L3.946 6.685a.617.617 0 00-.32.542v8.633A17.875 17.875 0 0014.34 32.22l1.674.729a.617.617 0 00.491 0l1.886-.814a17.84 17.84 0 0010.932-16.447V7.227a.618.618 0 00-.327-.545zm-.908 9.006a16.608 16.608 0 01-10.18 15.31l-.004.003-1.643.709-1.427-.623A16.638 16.638 0 014.861 15.86V7.592L16.307 1.32l11.781 6.278v8.091z"/><path d="M11.752 15.46a.618.618 0 00-.94.801l3.262 3.82c.218.255.6.29.859.078l7.596-6.18a.617.617 0 10-.78-.958l-7.128 5.799-2.87-3.36z"/></g><defs><clipPath id="clip0"><path fill="#fff" d="M0 0h33v33H0z"/></clipPath></defs></svg>