<svg width="64" height="64" fill="none" xmlns="http://www.w3.org/2000/svg"><path d="M62.99 10.563L61.07.861a1.067 1.067 0 00-1.255-.84L6.967 10.55H5.333c-.589 0-1.066.479-1.066 1.07v5.451A5.33 5.33 0 000 22.31v36.345A5.346 5.346 0 005.333 64h57.6c.59 0 1.067-.479 1.067-1.069v-51.31a1.068 1.068 0 00-1.01-1.058zm-3.807-8.236l1.63 8.224H17.906l41.277-8.224zM3.058 20.042l.005.004a3.274 3.274 0 011.204-.76v6.035c-.024-.007-.047-.013-.07-.021a3.13 3.13 0 01-.4-.194c-.065-.035-.133-.063-.195-.107a3.29 3.29 0 01-.533-.418 3.22 3.22 0 01-.01-4.54zm58.809 28.992H46.933v-8.551h14.934v8.551zm0-10.69h-16c-.59 0-1.067.48-1.067 1.07v10.69c0 .59.478 1.068 1.067 1.068h16v10.69H5.333a3.203 3.203 0 01-3.2-3.207v-32.07c.048.037.102.062.15.096.095.066.192.123.289.183a5.363 5.363 0 00.877.433c.205.077.415.14.628.19.099.025.195.056.295.074.317.06.639.092.961.094h56.534v10.69zM26.742 25.518c.586-4.09 4.37-6.931 8.452-6.344a7.475 7.475 0 016.33 6.344H26.742zm35.125 0H43.67c-.606-5.279-5.367-9.065-10.634-8.458a9.61 9.61 0 00-8.44 8.458H6.4V12.689h55.467v12.828z" fill="#FF461B"/></svg>