<svg width="64" height="64" viewBox="0 0 64 64" fill="none" xmlns="http://www.w3.org/2000/svg">
<line x1="61.2572" y1="2.69493" x2="2.12135" y2="61.8307" stroke="#FF461B" stroke-width="3" stroke-linecap="round"/>
<path d="M64 49.8286C64 57.6553 57.6552 64 49.8286 64C42.0019 64 35.6571 57.6553 35.6571 49.8286C35.6571 42.0019 42.0019 35.6572 49.8286 35.6572C57.6552 35.6572 64 42.0019 64 49.8286ZM38.4914 49.8286C38.4914 56.0899 43.5672 61.1657 49.8286 61.1657C56.0899 61.1657 61.1657 56.0899 61.1657 49.8286C61.1657 43.5673 56.0899 38.4915 49.8286 38.4915C43.5672 38.4915 38.4914 43.5673 38.4914 49.8286Z" fill="#FF461B"/>
<path d="M28.3429 14.1714C28.3429 21.9981 21.9981 28.3429 14.1714 28.3429C6.34476 28.3429 0 21.9981 0 14.1714C0 6.34476 6.34476 0 14.1714 0C21.9981 0 28.3429 6.34476 28.3429 14.1714ZM2.83429 14.1714C2.83429 20.4328 7.9101 25.5086 14.1714 25.5086C20.4328 25.5086 25.5086 20.4328 25.5086 14.1714C25.5086 7.9101 20.4328 2.83429 14.1714 2.83429C7.9101 2.83429 2.83429 7.9101 2.83429 14.1714Z" fill="#FF461B"/>
</svg>
