<svg width="33" height="33" viewBox="0 0 33 33" fill="none" xmlns="http://www.w3.org/2000/svg">
<g clip-path="url(#clip0)">
<path d="M28.9962 6.68159L16.5934 0.0727156C16.4094 -0.0254872 16.1889 -0.024109 16.0062 0.0761612L3.94658 6.68504C3.7488 6.79358 3.62613 7.00101 3.62613 7.2267V15.8596C3.63337 22.956 7.83782 29.3761 14.3399 32.2191L16.0138 32.9486C16.1702 33.0168 16.3484 33.0172 16.5052 32.9493L18.3913 32.1347C25.014 29.3533 29.3225 22.8713 29.3232 15.6883V7.2267C29.3232 6.9986 29.1974 6.78875 28.9962 6.68159ZM28.0883 15.6883C28.0869 22.3761 24.0744 28.4106 17.9079 30.9987L17.9038 31.0007L16.2612 31.7099L14.834 31.0872C8.7816 28.4409 4.86762 22.4654 4.86073 15.8596V7.59229L16.307 1.31903L28.0883 7.59677V15.6883Z" fill="#66CE71"/>
<path d="M11.7515 15.4592C11.5299 15.1998 11.1402 15.1691 10.8807 15.3907C10.6213 15.6119 10.5906 16.0019 10.8122 16.2611L14.0739 20.0806C14.2916 20.3356 14.6731 20.3704 14.9329 20.1589L22.5293 13.9786C22.7939 13.7636 22.8339 13.3746 22.6186 13.11C22.4035 12.8457 22.0145 12.8054 21.7499 13.0207L14.6214 18.8199L11.7515 15.4592Z" fill="#66CE71"/>
</g>
<defs>
<clipPath id="clip0">
<rect width="33" height="33" fill="white"/>
</clipPath>
</defs>
</svg>
