<svg width="64" height="64" viewBox="0 0 64 64" fill="none" xmlns="http://www.w3.org/2000/svg">
<path d="M32 0C14.3552 0 0 14.3552 0 32C0 49.6448 14.3552 64 32 64C49.6448 64 64 49.6448 64 32C64 14.3552 49.6448 0 32 0ZM32 61.8667C15.5317 61.8667 2.13333 48.4683 2.13333 32C2.13333 15.5317 15.5317 2.13333 32 2.13333C48.4683 2.13333 61.8667 15.5317 61.8667 32C61.8667 48.4683 48.4683 61.8667 32 61.8667Z" fill="white"/>
<path d="M32 6.40002C31.4112 6.40002 30.9333 6.87682 30.9333 7.46669V32H14.9333C14.3445 32 13.8666 32.4768 13.8666 33.0667C13.8666 33.6566 14.3445 34.1334 14.9333 34.1334H32C32.5888 34.1334 33.0666 33.6566 33.0666 33.0667V7.46669C33.0666 6.87682 32.5888 6.40002 32 6.40002Z" fill="white"/>
</svg>
