<svg width="64" height="64" viewBox="0 0 64 64" fill="none" xmlns="http://www.w3.org/2000/svg">
<path d="M62.9899 10.563L61.0699 0.861003C60.9551 0.281886 60.3937 -0.094259 59.8159 0.0206557C59.8157 0.0206557 59.8156 0.0206557 59.8155 0.0207894L6.96641 10.5513H5.33334C4.74428 10.5513 4.26668 11.0299 4.26668 11.6202V17.072C1.78041 17.5755 -0.00545415 19.768 1.2516e-05 22.31V58.6551C0.00347918 61.6055 2.38935 63.9965 5.33334 64H62.9333C63.5224 64 64 63.5214 64 62.931V11.6202C63.9947 11.0558 63.5523 10.5928 62.9899 10.563ZM59.1829 2.32657L60.8128 10.5513H17.9061L59.1829 2.32657ZM3.05815 20.0416L3.06348 20.0459C3.40401 19.7073 3.81481 19.4482 4.26668 19.2869V25.3213C4.24321 25.3138 4.21975 25.3085 4.19628 25.2999C4.05855 25.245 3.92495 25.1803 3.79628 25.1064C3.73228 25.0711 3.66401 25.0433 3.60215 24.9995C3.41041 24.8786 3.23175 24.7382 3.06881 24.5805C1.81855 23.3286 1.81375 21.2993 3.05815 20.0416ZM61.8667 49.0343H46.9333V40.4825H61.8667V49.0343ZM61.8667 38.3446H45.8667C45.2776 38.3446 44.8 38.8232 44.8 39.4136V50.1033C44.8 50.6937 45.2776 51.1723 45.8667 51.1723H61.8667V61.862H5.33334C3.56601 61.862 2.13335 60.4263 2.13335 58.6551V26.5859C2.18135 26.6222 2.23468 26.6468 2.28375 26.681C2.37761 26.7473 2.47468 26.8039 2.57175 26.8638C2.75135 26.9738 2.93735 27.0729 3.12855 27.161C3.23521 27.2091 3.34188 27.2561 3.44855 27.2967C3.65375 27.3736 3.86361 27.437 4.07681 27.487C4.17601 27.5116 4.27201 27.5426 4.37228 27.5608C4.68908 27.6212 5.01081 27.6527 5.33334 27.6548H61.8667V38.3446ZM26.7424 25.5169C27.3283 21.4262 31.1121 18.5859 35.1941 19.1731C38.4755 19.645 41.0533 22.2286 41.5243 25.5169H26.7424ZM61.8667 25.5169H43.6704C43.0643 20.2383 38.3031 16.4516 33.0359 17.059C28.6032 17.5703 25.1063 21.0746 24.5963 25.5169H6.40001V12.6892H61.8667V25.5169Z" fill="#FF461B"/>
</svg>
