<?xml version="1.0" standalone="no"?>
<!DOCTYPE svg PUBLIC "-//W3C//DTD SVG 20010904//EN"
 "http://www.w3.org/TR/2001/REC-SVG-20010904/DTD/svg10.dtd">
<svg version="1.0" xmlns="http://www.w3.org/2000/svg"
 width="700.000000pt" height="700.000000pt" viewBox="0 0 700.000000 700.000000"
 preserveAspectRatio="xMidYMid meet">
<metadata>
Created by potrace 1.11, written by Peter Selinger 2001-2013
</metadata>
<g transform="translate(0.000000,700.000000) scale(0.100000,-0.100000)"
fill="#000000" stroke="none">
<path d="M3278 6995 c-1 -1 -39 -5 -83 -9 -89 -7 -144 -13 -225 -26 -30 -5
-75 -12 -100 -16 -47 -6 -49 -7 -90 -17 -14 -4 -65 -16 -115 -28 -329 -76
-722 -242 -1020 -430 -578 -363 -1065 -918 -1327 -1512 -27 -62 -53 -121 -58
-132 -46 -95 -150 -427 -176 -560 -2 -11 -10 -54 -19 -95 -29 -147 -36 -200
-52 -370 -15 -164 -8 -592 12 -711 2 -13 6 -46 9 -74 9 -78 23 -156 51 -285
30 -141 110 -393 173 -551 50 -125 156 -337 226 -453 36 -60 66 -111 66 -113
0 -2 4 -9 10 -16 5 -7 46 -64 91 -126 187 -266 411 -502 679 -716 92 -74 370
-265 386 -265 4 0 15 -6 23 -14 32 -28 314 -166 448 -219 278 -111 562 -188
818 -222 22 -2 56 -7 75 -10 186 -26 698 -27 838 0 16 3 104 15 147 20 123 16
396 85 572 146 214 74 554 230 632 290 13 11 28 19 33 19 5 0 14 5 21 10 7 6
62 43 122 83 253 168 489 374 678 592 33 39 63 72 67 75 17 13 181 236 245
335 219 336 406 779 481 1140 16 79 54 301 59 350 4 33 9 71 11 85 9 46 11
524 4 605 -12 128 -21 202 -25 227 -3 13 -8 43 -11 68 -9 69 -70 336 -97 425
-202 663 -569 1225 -1091 1672 -93 79 -328 254 -387 288 -10 5 -54 32 -99 58
-273 162 -561 283 -865 366 -106 29 -282 67 -355 76 -19 3 -46 7 -60 10 -13 2
-52 7 -86 11 -33 3 -74 8 -90 10 -32 5 -540 14 -546 9z m362 -1329 c96 -5 151
-10 205 -20 11 -2 38 -7 60 -11 22 -4 54 -11 70 -15 17 -5 42 -11 57 -14 49
-8 202 -58 288 -93 483 -199 880 -564 1117 -1028 58 -113 136 -316 159 -410 1
-5 7 -30 14 -55 6 -25 13 -55 15 -67 2 -12 6 -34 9 -50 12 -54 16 -78 21 -133
4 -30 8 -71 11 -90 5 -45 5 -313 -1 -365 -36 -325 -109 -574 -242 -825 -221
-415 -560 -742 -979 -945 -72 -35 -144 -67 -160 -71 -16 -4 -33 -10 -39 -14
-35 -26 -344 -101 -470 -115 -33 -3 -73 -8 -90 -10 -39 -5 -331 -5 -370 0 -16
2 -55 6 -85 10 -58 7 -89 11 -130 20 -14 3 -38 8 -55 10 -16 3 -38 8 -47 11
-9 3 -26 7 -37 9 -45 8 -211 65 -295 99 -395 164 -733 442 -975 805 -61 90
-173 299 -200 371 -7 19 -24 64 -37 100 -35 94 -70 225 -89 332 -3 17 -7 34
-9 37 -2 3 -7 38 -11 78 -4 40 -8 85 -10 100 -6 38 -5 319 0 368 17 166 22
193 60 345 87 357 273 695 534 974 77 82 258 232 370 307 122 81 346 194 476
239 190 66 402 108 595 117 69 3 126 7 128 8 2 2 11 1 20 -1 9 -1 64 -5 122
-8z"/>
</g>
</svg>
