<svg version="1.0" xmlns="http://www.w3.org/2000/svg" width="933.333" height="933.333" viewBox="0 0 700 700"><path d="M327.8.5c-.1.1-3.9.5-8.3.9-8.9.7-14.4 1.3-22.5 2.6-3 .5-7.5 1.2-10 1.6-4.7.6-4.9.7-9 1.7-1.4.4-6.5 1.6-11.5 2.8-32.9 7.6-72.2 24.2-102 43C106.7 89.4 58 144.9 31.8 204.3c-2.7 6.2-5.3 12.1-5.8 13.2-4.6 9.5-15 42.7-17.6 56-.2 1.1-1 5.4-1.9 9.5-2.9 14.7-3.6 20-5.2 37-1.5 16.4-.8 59.2 1.2 71.1.2 1.3.6 4.6.9 7.4.9 7.8 2.3 15.6 5.1 28.5 3 14.1 11 39.3 17.3 55.1 5 12.5 15.6 33.7 22.6 45.3 3.6 6 6.6 11.1 6.6 11.3 0 .2.4.9 1 1.6.5.7 4.6 6.4 9.1 12.6 18.7 26.6 41.1 50.2 67.9 71.6 9.2 7.4 37 26.5 38.6 26.5.4 0 1.5.6 2.3 1.4 3.2 2.8 31.4 16.6 44.8 21.9 27.8 11.1 56.2 18.8 81.8 22.2 2.2.2 5.6.7 7.5 1 18.6 2.6 69.8 2.7 83.8 0 1.6-.3 10.4-1.5 14.7-2 12.3-1.6 39.6-8.5 57.2-14.6 21.4-7.4 55.4-23 63.2-29 1.3-1.1 2.8-1.9 3.3-1.9s1.4-.5 2.1-1c.7-.6 6.2-4.3 12.2-8.3 25.3-16.8 48.9-37.4 67.8-59.2 3.3-3.9 6.3-7.2 6.7-7.5 1.7-1.3 18.1-23.6 24.5-33.5 21.9-33.6 40.6-77.9 48.1-114 1.6-7.9 5.4-30.1 5.9-35 .4-3.3.9-7.1 1.1-8.5.9-4.6 1.1-52.4.4-60.5-1.2-12.8-2.1-20.2-2.5-22.7-.3-1.3-.8-4.3-1.1-6.8-.9-6.9-7-33.6-9.7-42.5-20.2-66.3-56.9-122.5-109.1-167.2-9.3-7.9-32.8-25.4-38.7-28.8-1-.5-5.4-3.2-9.9-5.8-27.3-16.2-56.1-28.3-86.5-36.6-10.6-2.9-28.2-6.7-35.5-7.6-1.9-.3-4.6-.7-6-1-1.3-.2-5.2-.7-8.6-1.1-3.3-.3-7.4-.8-9-1-3.2-.5-54-1.4-54.6-.9zM364 133.4c9.6.5 15.1 1 20.5 2 1.1.2 3.8.7 6 1.1 2.2.4 5.4 1.1 7 1.5 1.7.5 4.2 1.1 5.7 1.4 4.9.8 20.2 5.8 28.8 9.3 48.3 19.9 88 56.4 111.7 102.8 5.8 11.3 13.6 31.6 15.9 41 .1.5.7 3 1.4 5.5.6 2.5 1.3 5.5 1.5 6.7.2 1.2.6 3.4.9 5 1.2 5.4 1.6 7.8 2.1 13.3.4 3 .8 7.1 1.1 9 .5 4.5.5 31.3-.1 36.5-3.6 32.5-10.9 57.4-24.2 82.5-22.1 41.5-56 74.2-97.9 94.5-7.2 3.5-14.4 6.7-16 7.1-1.6.4-3.3 1-3.9 1.4-3.5 2.6-34.4 10.1-47 11.5-3.3.3-7.3.8-9 1-3.9.5-33.1.5-37 0-1.6-.2-5.5-.6-8.5-1-5.8-.7-8.9-1.1-13-2-1.4-.3-3.8-.8-5.5-1-1.6-.3-3.8-.8-4.7-1.1-.9-.3-2.6-.7-3.7-.9-4.5-.8-21.1-6.5-29.5-9.9-39.5-16.4-73.3-44.2-97.5-80.5-6.1-9-17.3-29.9-20-37.1-.7-1.9-2.4-6.4-3.7-10-3.5-9.4-7-22.5-8.9-33.2-.3-1.7-.7-3.4-.9-3.7-.2-.3-.7-3.8-1.1-7.8-.4-4-.8-8.5-1-10-.6-3.8-.5-31.9 0-36.8 1.7-16.6 2.2-19.3 6-34.5 8.7-35.7 27.3-69.5 53.4-97.4 7.7-8.2 25.8-23.2 37-30.7 12.2-8.1 34.6-19.4 47.6-23.9 19-6.6 40.2-10.8 59.5-11.7 6.9-.3 12.6-.7 12.8-.8.2-.2 1.1-.1 2 .1.9.1 6.4.5 12.2.8z"/></svg>